<svg width="20" height="20" viewBox="0 0 20 20" fill="none" xmlns="http://www.w3.org/2000/svg">
<g clip-path="url(#clip0)">
<path d="M10.0037 4.86499C7.1679 4.86499 4.87207 7.16332 4.87207 9.99666C4.87207 12.8325 7.1704 15.1283 10.0037 15.1283C12.8396 15.1283 15.1354 12.83 15.1354 9.99666C15.1354 7.16082 12.8371 4.86499 10.0037 4.86499ZM10.0037 13.3275C8.1629 13.3275 6.6729 11.8367 6.6729 9.99666C6.6729 8.15666 8.16374 6.66582 10.0037 6.66582C11.8437 6.66582 13.3346 8.15666 13.3346 9.99666C13.3354 11.8367 11.8446 13.3275 10.0037 13.3275Z" fill="#E5A567"/>
<path d="M14.1235 0.0635546C12.2835 -0.0222787 7.72602 -0.018112 5.88436 0.0635546C4.26602 0.139388 2.83852 0.530221 1.68769 1.68105C-0.235644 3.60439 0.0101894 6.19606 0.0101894 9.99689C0.0101894 13.8869 -0.206477 16.4186 1.68769 18.3127C3.61852 20.2427 6.24769 19.9902 10.0035 19.9902C13.8569 19.9902 15.1869 19.9927 16.5494 19.4652C18.4019 18.7461 19.8002 17.0902 19.9369 14.1161C20.0235 12.2752 20.0185 7.71855 19.9369 5.87689C19.7719 2.36606 17.8877 0.236888 14.1235 0.0635546ZM17.036 17.0402C15.7752 18.3011 14.026 18.1886 9.97936 18.1886C5.81269 18.1886 4.14186 18.2502 2.92269 17.0277C1.51852 15.6302 1.77269 13.3861 1.77269 9.98355C1.77269 5.37939 1.30019 2.06355 5.92102 1.82689C6.98269 1.78939 7.29519 1.77689 9.96769 1.77689L10.0052 1.80189C14.446 1.80189 17.9302 1.33689 18.1394 5.95689C18.1869 7.01105 18.1977 7.32772 18.1977 9.99605C18.1969 14.1144 18.2752 15.7952 17.036 17.0402Z" fill="#E5A567"/>
<path d="M15.3388 5.86171C16.0011 5.86171 16.538 5.32482 16.538 4.66254C16.538 4.00026 16.0011 3.46338 15.3388 3.46338C14.6765 3.46338 14.1396 4.00026 14.1396 4.66254C14.1396 5.32482 14.6765 5.86171 15.3388 5.86171Z" fill="#E5A567"/>
</g>
<defs>
<clipPath id="clip0">
<rect width="20" height="20" fill="white"/>
</clipPath>
</defs>
</svg>
