<svg width="57" height="26" viewBox="0 0 57 26" fill="none" xmlns="http://www.w3.org/2000/svg">
<path d="M13.43 19.9623C13.4717 19.9623 13.4926 20.0057 13.4926 20.0923C13.4926 20.179 13.4717 20.2223 13.43 20.2223C13.0269 20.2223 12.7141 20.2151 12.4916 20.2007L11.2404 20.179L9.53041 20.2007C9.26626 20.2151 8.89785 20.2223 8.42516 20.2223C8.38346 20.2223 8.3626 20.179 8.3626 20.0923C8.3626 20.0057 8.38346 19.9623 8.42516 19.9623C8.88394 19.9623 9.11333 19.8396 9.11333 19.594C9.11333 19.464 9.05077 19.3051 8.92565 19.1173L6.0687 14.524L4.27528 17.189C3.73309 17.9834 3.46199 18.6262 3.46199 19.1173C3.46199 19.6807 3.82346 19.9623 4.54638 19.9623C4.57419 19.9623 4.58809 20.0057 4.58809 20.0923C4.58809 20.179 4.57419 20.2223 4.54638 20.2223C4.0876 20.2223 3.74004 20.2151 3.5037 20.2007L1.96053 20.179L0.980407 20.2007C0.799675 20.2151 0.507724 20.2223 0.104553 20.2223C0.0628458 20.2223 0.0419922 20.179 0.0419922 20.0923C0.0419922 20.0057 0.0628458 19.9623 0.104553 19.9623C0.535529 19.9623 1.06382 19.724 1.68943 19.2473C2.31504 18.7707 2.96846 18.0412 3.64968 17.059L5.77675 14.069L2.44016 8.674C2.0648 8.05289 1.70333 7.61233 1.35577 7.35233C1.00821 7.07789 0.639797 6.94066 0.250529 6.94066C0.208821 6.94066 0.187968 6.89733 0.187968 6.81066C0.187968 6.724 0.208821 6.68066 0.250529 6.68066L1.14724 6.70233C1.5365 6.73122 1.82846 6.74566 2.02309 6.74566C2.50968 6.74566 3.11443 6.73122 3.83736 6.70233L5.02602 6.68066C5.05382 6.68066 5.06772 6.724 5.06772 6.81066C5.06772 6.89733 5.05382 6.94066 5.02602 6.94066C4.55333 6.94066 4.31699 7.06344 4.31699 7.309C4.31699 7.42455 4.37955 7.59066 4.50467 7.80733L7.25736 12.2057L8.92565 9.73566C9.46785 8.92677 9.73894 8.27678 9.73894 7.78566C9.73894 7.22233 9.37748 6.94066 8.65455 6.94066C8.62675 6.94066 8.61285 6.89733 8.61285 6.81066C8.61285 6.724 8.62675 6.68066 8.65455 6.68066L9.69724 6.70233C10.2533 6.73122 10.7677 6.74566 11.2404 6.74566C11.5324 6.74566 11.8591 6.73122 12.2205 6.70233L13.0964 6.68066C13.1381 6.68066 13.1589 6.724 13.1589 6.81066C13.1589 6.89733 13.1381 6.94066 13.0964 6.94066C12.6515 6.94066 12.1163 7.18622 11.4907 7.67733C10.8789 8.154 10.2255 8.88344 9.53041 9.86566L7.54931 12.6823L11.1153 18.424C11.4628 18.9584 11.8174 19.3484 12.1788 19.594C12.5403 19.8396 12.9574 19.9623 13.43 19.9623ZM27.3699 6.68066C27.4116 6.68066 27.4324 6.724 27.4324 6.81066C27.4324 6.89733 27.4116 6.94066 27.3699 6.94066C26.8694 6.94066 26.3898 7.17177 25.931 7.634C25.4722 8.09622 25.1038 8.71733 24.8257 9.49733L20.9678 20.2007C20.9539 20.2584 20.8774 20.2873 20.7384 20.2873C20.5994 20.2873 20.5229 20.2584 20.509 20.2007L15.1913 8.479C14.9411 7.959 14.6909 7.57622 14.4406 7.33066C14.1904 7.07066 13.9123 6.94066 13.6065 6.94066C13.5648 6.94066 13.5439 6.89733 13.5439 6.81066C13.5439 6.724 13.5648 6.68066 13.6065 6.68066C13.815 6.68066 13.961 6.68789 14.0444 6.70233C14.3224 6.73122 14.6839 6.74566 15.1288 6.74566C16.3244 6.74566 17.3393 6.73122 18.1734 6.70233C18.3959 6.68789 18.6739 6.68066 19.0076 6.68066C19.0493 6.68066 19.0701 6.724 19.0701 6.81066C19.0701 6.89733 19.0493 6.94066 19.0076 6.94066C18.5905 6.94066 18.2638 7.03455 18.0274 7.22233C17.805 7.39566 17.6938 7.64844 17.6938 7.98066C17.6938 8.22622 17.7702 8.52233 17.9232 8.869L21.5309 16.864L24.2418 9.43233C24.3809 9.02789 24.4504 8.68122 24.4504 8.39233C24.4504 7.94455 24.3183 7.59066 24.0541 7.33066C23.8039 7.07066 23.4355 6.94066 22.9489 6.94066C22.9072 6.94066 22.8863 6.89733 22.8863 6.81066C22.8863 6.724 22.9072 6.68066 22.9489 6.68066L23.9707 6.70233C24.5546 6.73122 25.076 6.74566 25.5348 6.74566C25.7989 6.74566 26.1256 6.73122 26.5149 6.70233L27.3699 6.68066ZM32.0027 18.4673C32.0027 18.9151 32.0374 19.2401 32.1069 19.4423C32.1764 19.6446 32.3085 19.7818 32.5031 19.854C32.7117 19.9262 33.0384 19.9623 33.4833 19.9623C33.525 19.9623 33.5458 20.0057 33.5458 20.0923C33.5458 20.179 33.525 20.2223 33.4833 20.2223C33.0245 20.2223 32.663 20.2151 32.3989 20.2007L30.814 20.179L29.2708 20.2007C28.9928 20.2151 28.6174 20.2223 28.1447 20.2223C28.1169 20.2223 28.103 20.179 28.103 20.0923C28.103 20.0057 28.1169 19.9623 28.1447 19.9623C28.5896 19.9623 28.9163 19.9262 29.1248 19.854C29.3334 19.7818 29.4724 19.6446 29.5419 19.4423C29.6253 19.2257 29.667 18.9007 29.667 18.4673V8.43566C29.667 8.00233 29.6253 7.68455 29.5419 7.48233C29.4724 7.28011 29.3334 7.14289 29.1248 7.07066C28.9163 6.984 28.5896 6.94066 28.1447 6.94066C28.1169 6.94066 28.103 6.89733 28.103 6.81066C28.103 6.724 28.1169 6.68066 28.1447 6.68066L29.2708 6.70233C29.9103 6.73122 30.4247 6.74566 30.814 6.74566C31.245 6.74566 31.7802 6.73122 32.4197 6.70233L33.4833 6.68066C33.525 6.68066 33.5458 6.724 33.5458 6.81066C33.5458 6.89733 33.525 6.94066 33.4833 6.94066C33.0523 6.94066 32.7325 6.984 32.524 7.07066C32.3155 7.15733 32.1764 7.309 32.1069 7.52566C32.0374 7.72789 32.0027 8.04566 32.0027 8.479V18.4673Z" fill="#E5A567"/>
<path d="M41.6202 16.3981C42.1624 16.4342 42.6003 16.622 42.934 16.9614C43.2677 17.3009 43.4345 17.7198 43.4345 18.2181C43.4345 18.6081 43.3476 18.9584 43.1738 19.2689C43 19.5795 42.7602 19.8251 42.4544 20.0056C42.1485 20.1789 41.8114 20.2656 41.443 20.2656C41.2066 20.2656 40.9564 20.2548 40.6922 20.2331C40.5949 20.2259 40.4802 20.2187 40.3482 20.2114C40.2161 20.2042 40.0666 20.2006 39.8998 20.2006L39.2116 20.2114C39.0865 20.2187 38.9127 20.2223 38.6903 20.2223C38.6764 20.2223 38.6694 20.2006 38.6694 20.1573C38.6694 20.1139 38.6764 20.0923 38.6903 20.0923C38.9683 20.0923 39.1699 20.0742 39.295 20.0381C39.4271 20.002 39.5175 19.9334 39.5661 19.8323C39.6148 19.7239 39.6391 19.5614 39.6391 19.3448V14.3289C39.6391 14.1123 39.6148 13.9534 39.5661 13.8523C39.5244 13.7512 39.4375 13.6826 39.3055 13.6464C39.1803 13.6031 38.9822 13.5814 38.7111 13.5814C38.6903 13.5814 38.6799 13.5598 38.6799 13.5164C38.6799 13.4731 38.6903 13.4514 38.7111 13.4514L39.2116 13.4623C39.4897 13.4767 39.7191 13.4839 39.8998 13.4839C40.0249 13.4839 40.1431 13.4803 40.2543 13.4731C40.3655 13.4659 40.4628 13.4587 40.5463 13.4514C40.7618 13.4298 40.9529 13.4189 41.1197 13.4189C41.6967 13.4189 42.1207 13.5562 42.3918 13.8306C42.6699 14.0978 42.8089 14.4409 42.8089 14.8598C42.8089 15.2137 42.7011 15.5242 42.4857 15.7914C42.2702 16.0514 41.9817 16.2537 41.6202 16.3981ZM40.8799 13.5598C40.6853 13.5598 40.5428 13.5742 40.4524 13.6031C40.3621 13.632 40.2925 13.7006 40.2439 13.8089C40.2022 13.9173 40.1813 14.0978 40.1813 14.3506V16.4089L40.6714 16.4198C41.2205 16.4198 41.6202 16.2862 41.8705 16.0189C42.1207 15.7445 42.2458 15.3834 42.2458 14.9356C42.2458 14.5312 42.1346 14.2026 41.9122 13.9498C41.6967 13.6898 41.3526 13.5598 40.8799 13.5598ZM41.297 20.0923C41.8114 20.0923 42.1937 19.9551 42.4439 19.6806C42.7011 19.3989 42.8297 19.0017 42.8297 18.4889C42.8297 17.9401 42.6664 17.4959 42.3397 17.1564C42.0199 16.8098 41.5855 16.6328 41.0363 16.6256C40.7791 16.6184 40.4941 16.6256 40.1813 16.6473V19.3448C40.1813 19.5398 40.2091 19.6914 40.2647 19.7998C40.3273 19.9009 40.4385 19.9767 40.5984 20.0273C40.7583 20.0706 40.9911 20.0923 41.297 20.0923ZM48.8546 18.6406C48.8546 18.6189 48.8755 18.6117 48.9172 18.6189C48.9589 18.6189 48.9798 18.6298 48.9798 18.6514C48.9172 19.1064 48.8859 19.5759 48.8859 20.0598C48.8859 20.1176 48.872 20.1609 48.8442 20.1898C48.8234 20.2114 48.7817 20.2223 48.7191 20.2223H44.4128C44.3989 20.2223 44.392 20.2006 44.392 20.1573C44.392 20.1139 44.3989 20.0923 44.4128 20.0923C44.6839 20.0923 44.882 20.0742 45.0071 20.0381C45.1392 20.002 45.2261 19.9334 45.2678 19.8323C45.3165 19.7239 45.3408 19.5614 45.3408 19.3448V14.3289C45.3408 14.1123 45.3165 13.9534 45.2678 13.8523C45.2261 13.7512 45.1392 13.6826 45.0071 13.6464C44.882 13.6031 44.6839 13.5814 44.4128 13.5814C44.3989 13.5814 44.392 13.5598 44.392 13.5164C44.392 13.4731 44.3989 13.4514 44.4128 13.4514H48.5418C48.6044 13.4514 48.6357 13.4839 48.6357 13.5489L48.6565 14.8598C48.6565 14.8814 48.6357 14.8923 48.594 14.8923C48.5592 14.8923 48.5418 14.8814 48.5418 14.8598C48.5418 14.4914 48.448 14.1989 48.2603 13.9823C48.0726 13.7656 47.8259 13.6573 47.52 13.6573H46.8006C46.5364 13.6573 46.3418 13.6753 46.2166 13.7114C46.0915 13.7476 46.0046 13.8162 45.956 13.9173C45.9143 14.0184 45.8934 14.1773 45.8934 14.3939V16.5931H47.2698C47.5895 16.5931 47.812 16.5389 47.9371 16.4306C48.0622 16.3151 48.1248 16.1201 48.1248 15.8456C48.1248 15.8312 48.1456 15.8239 48.1873 15.8239C48.229 15.8239 48.2499 15.8312 48.2499 15.8456L48.2395 16.7014C48.2395 16.9109 48.2429 17.0662 48.2499 17.1673L48.2603 17.6764C48.2603 17.6909 48.2395 17.6981 48.1977 17.6981C48.156 17.6981 48.1352 17.6909 48.1352 17.6764C48.1352 17.3514 48.0692 17.1239 47.9371 16.9939C47.805 16.8639 47.5721 16.7989 47.2385 16.7989H45.8934V19.3014C45.8934 19.5109 45.9143 19.6662 45.956 19.7673C46.0046 19.8612 46.088 19.9262 46.2062 19.9623C46.3313 19.9984 46.5295 20.0164 46.8006 20.0164H47.7598C48.0379 20.0164 48.2742 19.8901 48.4688 19.6373C48.6704 19.3845 48.799 19.0523 48.8546 18.6406ZM56.1973 20.0923C56.2112 20.0923 56.2181 20.1139 56.2181 20.1573C56.2181 20.2006 56.2112 20.2223 56.1973 20.2223H54.9565C54.8592 20.2223 54.7723 20.197 54.6958 20.1464C54.6263 20.0887 54.5081 19.9442 54.3413 19.7131C54.1745 19.482 53.8756 19.0451 53.4446 18.4023C53.1179 17.9039 52.8711 17.5573 52.7043 17.3623C52.5444 17.1601 52.3811 17.0192 52.2142 16.9398C52.0474 16.8531 51.825 16.8098 51.5469 16.8098C51.4774 16.8098 51.4218 16.8134 51.3801 16.8206V19.3448C51.3801 19.5687 51.4009 19.7312 51.4426 19.8323C51.4913 19.9334 51.5782 20.002 51.7033 20.0381C51.8284 20.0742 52.03 20.0923 52.3081 20.0923C52.322 20.0923 52.3289 20.1139 52.3289 20.1573C52.3289 20.2006 52.322 20.2223 52.3081 20.2223C52.0995 20.2223 51.9327 20.2187 51.8076 20.2114L51.0986 20.2006L50.4104 20.2114C50.2853 20.2187 50.1115 20.2223 49.889 20.2223C49.8751 20.2223 49.8682 20.2006 49.8682 20.1573C49.8682 20.1139 49.8751 20.0923 49.889 20.0923C50.1601 20.0923 50.3583 20.0742 50.4834 20.0381C50.6155 20.002 50.7058 19.9334 50.7545 19.8323C50.8031 19.7239 50.8275 19.5614 50.8275 19.3448V14.3289C50.8275 14.1123 50.8031 13.9534 50.7545 13.8523C50.7128 13.7512 50.6259 13.6826 50.4938 13.6464C50.3687 13.6031 50.1706 13.5814 49.8995 13.5814C49.8856 13.5814 49.8786 13.5598 49.8786 13.5164C49.8786 13.4731 49.8856 13.4514 49.8995 13.4514L50.4104 13.4623C50.7023 13.4767 50.9317 13.4839 51.0986 13.4839C51.2862 13.4839 51.5261 13.4767 51.818 13.4623L52.3081 13.4514C52.322 13.4514 52.3289 13.4731 52.3289 13.5164C52.3289 13.5598 52.322 13.5814 52.3081 13.5814C52.037 13.5814 51.8354 13.6031 51.7033 13.6464C51.5782 13.6898 51.4913 13.7656 51.4426 13.8739C51.4009 13.9751 51.3801 14.1339 51.3801 14.3506V16.6364C51.7554 16.622 51.9883 16.6148 52.0787 16.6148C52.1899 16.6148 52.2698 16.6184 52.3185 16.6256L53.6323 14.7189C53.7991 14.4734 53.9208 14.282 53.9972 14.1448C54.0737 14.0003 54.1119 13.8884 54.1119 13.8089C54.1119 13.7223 54.0667 13.6645 53.9764 13.6356C53.886 13.5995 53.7435 13.5814 53.5489 13.5814C53.535 13.5814 53.528 13.5598 53.528 13.5164C53.528 13.4731 53.535 13.4514 53.5489 13.4514L53.9868 13.4623C54.2509 13.4767 54.4942 13.4839 54.7167 13.4839C54.9391 13.4839 55.1685 13.4767 55.4048 13.4623L55.7698 13.4514C55.7906 13.4514 55.8011 13.4731 55.8011 13.5164C55.8011 13.5598 55.7906 13.5814 55.7698 13.5814C55.3875 13.5814 55.0712 13.6681 54.8209 13.8414C54.5776 14.0148 54.2857 14.3326 53.9451 14.7948L52.5583 16.6581C52.7599 16.7014 52.9337 16.8026 53.0797 16.9614C53.2326 17.1203 53.4585 17.4273 53.7574 17.8823L53.9659 18.1856C54.2857 18.6623 54.5498 19.027 54.7584 19.2798C54.9669 19.5326 55.1859 19.7312 55.4153 19.8756C55.6447 20.0128 55.9053 20.0851 56.1973 20.0923Z" fill="white"/>
</svg>
