<svg width="17" height="17" viewBox="0 0 17 17" fill="none" xmlns="http://www.w3.org/2000/svg">
<path d="M15.7112 13.8375C16.2362 14.3625 16.2362 15.1792 15.7112 15.7042C15.4487 15.9667 15.1279 16.0833 14.7779 16.0833C14.4279 16.0833 14.1071 15.9667 13.8446 15.7042L8.5071 10.3667L3.16958 15.7042C2.90708 15.9667 2.58626 16.0833 2.23626 16.0833C1.88626 16.0833 1.56544 15.9667 1.30294 15.7042C0.777944 15.1792 0.777944 14.3625 1.30294 13.8375L6.64042 8.49998L1.30294 3.16249C0.777944 2.63749 0.777944 1.82082 1.30294 1.29582C1.82794 0.770816 2.64458 0.770816 3.16958 1.29582L8.5071 6.63331L13.8446 1.29582C14.3696 0.770816 15.1862 0.770816 15.7112 1.29582C16.2362 1.82082 16.2362 2.63749 15.7112 3.16249L10.3737 8.49998L15.7112 13.8375Z" fill="white"/>
</svg>
