<svg width="176" height="176" viewBox="0 0 176 176" fill="none" xmlns="http://www.w3.org/2000/svg">
<path d="M150.225 25.7744C133.604 9.15372 111.506 0 88 0C64.494 0 42.395 9.15372 25.7744 25.7744C9.15338 42.3954 0 64.4944 0 88C0 111.506 9.15338 133.604 25.7744 150.225C42.3954 166.846 64.494 176 88 176C111.506 176 133.604 166.846 150.225 150.225C166.846 133.604 176 111.506 176 88C176 64.4944 166.846 42.3957 150.225 25.7744ZM88 165.688C45.1629 165.688 10.3125 130.837 10.3125 88C10.3125 45.1629 45.1629 10.3125 88 10.3125C130.837 10.3125 165.688 45.1629 165.688 88C165.688 130.837 130.837 165.688 88 165.688Z" fill="#2A252A"/>
<path d="M130.042 59.7639C128.029 57.7509 124.764 57.7509 122.751 59.7642L77.2179 105.297L53.2493 81.3283C51.2359 79.315 47.971 79.315 45.9573 81.3283C43.9436 83.3417 43.9436 86.6066 45.9573 88.6203L73.5718 116.235C74.5786 117.242 75.8983 117.745 77.2176 117.745C78.5369 117.745 79.8569 117.241 80.8634 116.235L130.042 67.0558C132.056 65.0425 132.056 61.7775 130.042 59.7639Z" fill="#E5A567"/>
</svg>
